<svg xmlns="http://www.w3.org/2000/svg" xmlns:xlink="http://www.w3.org/1999/xlink" viewBox="0 0 774.88 712.09"><defs><style>.cls-1{fill:url(#linear-gradient);}.cls-2{fill:url(#linear-gradient-2);}</style><linearGradient id="linear-gradient" x1="633.33" y1="97.03" x2="9.65" y2="416.63" gradientUnits="userSpaceOnUse"><stop offset="0" stop-color="#ff0200"/><stop offset="1" stop-color="#a31100"/></linearGradient><linearGradient id="linear-gradient-2" x1="0" y1="6230.01" x2="708.43" y2="6230.01" gradientTransform="matrix(1, 0, 0, -1, 0, 6658.31)" xlink:href="#linear-gradient"/></defs><g id="Layer_2" data-name="Layer 2"><g id="graphics"><path class="cls-1" d="M699.14,76.17Q623,0,516.16,0H0V712.09H255.78s0-182.15,0-182.15H516.16q106.8,0,183-76.17,75.74-76.59,75.74-184.25v-9.1Q774.88,152.76,699.14,76.17ZM451.43,326.65H255.77V213.44H451.43a56.61,56.61,0,1,1,0,113.21Z"/><path class="cls-2" d="M0,712.09C0,587.78,69.23,529.94,181.93,529.94H516.16q78.65,0,140.67-41.29h0c98.56-65.62,53-275.21-111.49-275.21h-93.9a56.61,56.61,0,1,1,0,113.21H181.93C69.23,326.65,0,268.82,0,144.51Z"/></g></g></svg>